/* XPM */
static char *ed404da8f8874503fa2bd5a07adf3f6eegEWpJejxAFZHmcr[] = {
/* columns rows colors chars-per-pixel */
"59 69 15 1 ",
"  c None",
". c #A10000",
"X c #B30000",
"o c #CC0000",
"O c #E10000",
"+ c red",
"@ c #FF0D00",
"# c #FF1700",
"$ c #FF3300",
"% c #FF5700",
"& c #FF8500",
"* c #FFAA29",
"= c #FFD873",
"- c #FFFDBC",
"; c white",
/* pixels */
"                 X.                                        ",
"               XX+OX.          .                           ",
"               O&&%            O.                          ",
"               .+&+           .OX                          ",
"               .O&+          .XX.                          ",
"                X                                          ",
"                                                           ",
"                                     .X.                   ",
"                                      ++                   ",
"                                      O$.                  ",
"                                ..   .O&$X.                ",
"                               O&O   XO+&&%$O.             ",
"                              O$&X     .X%$+%$             ",
"                    O.        .+&XXO     XX .XX            ",
"                   O%X         X&%&&+OOX .XX XO            ",
"                   %X     . .. O&&%%&&&%O%&&++X            ",
"                  .X   . O+ .XX&&%O.O+&&***&&%X XX         ",
"                  .    .XO$X.X$*&%.  .X&%+++%%  .X         ",
"          .X            . .O&&&&*&O.   OX  .XX  XX         ",
"          O*O$$O+%O.     X+%&******&X          .XOOX    XX ",
"          O*&%&&&**&+X .O&&&*=====**&X           X$X   XOO ",
"           %$XO++%&***&&*&*==-====***%OX+O       .X  XO%%. ",
"           .X  X+%&&*=--===*=-=**====&&**&O          X%%.  ",
"               X+%&%+&===========*===*&&&*$.  .XX    ..    ",
"               ..XX+X+&&&*--======*=-=*$O%+. .X&%.  .X     ",
"                X%&*==*&%=-=-=========*&  X  XX&%.         ",
"              .X+*=-==------===-=====*&*+   X.X$%X     .XX.",
"             .OO+&&====---===========*&*&X.X.XO+%O      .O+",
"          .. .X%%%&*==-======------==*&&&$%&%$+XOX     ..X$",
"          ..  .$%%%&*=======-=----==*&&&O+%*=*&+...X   .XOX",
"           X.  .&*&**==**===-------*&&&==&*===*&O.O+X   .  ",
"           .+XXX%****==**&*=-;;--;-&*=----==*&&%O.%+XX     ",
"            OO%+&&&&&*===&&=-------;;---=**==**&%$&+X      ",
"            X&*&%$&&&*===**=-;-------=====**=*&**&&++      ",
"            .&*&%$&***===**=;;;;-----=&*--====*****++      ",
"             +&&&&*******===--;;----=--=============+O     ",
"       X     $%&&==*&*&*==----;--=-----=========*&&*=+X    ",
"      ..    +$.O&==*&&*---;;;---==---;;--=======&**=-@OX   ",
"            .&$X&==*&&*---;-;-------;;;--========-----+X   ",
"          X  .++*==*&*=--;;---;----;;;======-===-==-;;&X   ",
"         .+.   O*==*&*=-;-;----;;-=----===---=====----=+   ",
"        O%&+O X**=*&&*=---=-=--;;;=-=---==--==***===*&=+X  ",
"       $**&$XX+&===***------=-;;--=**---------=*&+$*&&=+X  ",
"     .%&%&&&$O+$&=-===--=--;--;;;;-==--------==**O%&%&=$X  ",
"     +&&&&**&$+$$&*==-===--=----;;;-------=--=*&&$*$+%%&X  ",
"    .O&=*****&$+$%&*======--====-=--;;------==&&++*&++X$+  ",
"   .%&=**=*&*&%$$$&*==----==*====--------====*&&&&=*&$+%$  ",
"  .&=-=*======&%$$&=--;---==***==---;-=-=======**===%$%%$X ",
"   %*==*==--===*+$&-=---;;-==*====--;---===-===**=-=%$++%X ",
"   +&*=**=-=---&%%*==------========-;---==*====**===&%+OO  ",
" XXO%*****=---;*%%===---;--;-=====----===**=====***==#+OX  ",
"O$XX$%%&**=----*#&====------;--=------==*&*=====&&*--#$X   ",
"+%+O%%&*=*=---=*&&====---------===--=-=-****====&&&===$X   ",
"%%X%&&&=*=----=**&*===------------;-=---===*---=&&&&==$O   ",
"+%X&&+O&*==**=****====-----=-------;---=====--===*&&*=$O   ",
"O&+*&O.O***&*=*=-=*===--====-==---------=*===*&&=*&&=-&O   ",
".+$.++*-*&&*&&&*======--===--====-------=*=*&%$$&&=*==$XX  ",
" XOOOO*-=*=*&&&==*--=---==---=--=-===---=&&*&OOO$&=***+O++ ",
"   X+$$==*****=-==---=--------=---===--;-=&&%OOO%&&&%&++$+ ",
"     OO+=*========-=====----====---==-----==&$+%&&&&%%%+++ ",
"       X+*====-==-======-----==---------=---==&&&&&&&&$++  ",
"        O$=----=--=-===-------==--;;-------=-===*&&&*&%++  ",
"        O&&=--==--=--==-------=-;;------===&&*==&*&&&&%%$+ ",
"       Oo*&&============------==--=------==&&***&**%&%$$$O ",
"      O+%&&&====**===*==---;------------===*&&*&**&%%%%$+o ",
"     XO$$%%%*==**&*=**===----==----;-===*****&&&&*&$$%%++o ",
"      o+$$%%&=******&&**=-=====------===&&&*&$$&&%$++++++o ",
"       X+++%%%$+%$%%&&&***&*==----====**&&&&&$%$$$++++oo   ",
"           ooooooo+%%%%$%%&&&&&&&===**&&&&$%&%$$$+oooo     "
};
