/* XPM */
static char *_600897330343[] = {
/* columns rows colors chars-per-pixel */
"64 64 16 1 ",
"  c #4C0204",
". c #7C0204",
"X c #2C2E2C",
"o c #B40204",
"O c #5C0204",
"+ c #9C0204",
"@ c #444644",
"# c #CC0204",
"$ c #740204",
"% c #242224",
"& c #8C0204",
"* c #343634",
"= c #BC0204",
"- c #640204",
"; c #A40204",
": c black",
/* pixels */
"****************************************************************",
"*%**XX*X**XX*XX**%X*XX*XX*******XX*XX*XX********XX*%%%*X***XX*X%",
"%####o;o;o;o&X**#=#=ooooooo;;;++;++;&X%*####==oo=o;o;o;o+++;++&X",
"*#o++=$.#$o. %X*#;$;$o$;-;.;.;$;-oo.-%X%#+o+o++o o-o+o$+.$o.o&$%",
"Xo&-&$&.O.$O %X*=;$$&$ &&O.&&O.&O..- %**#&&$ &$O$&-$.&$&-$& &O %",
"Xo-&&O.&&O&  %X*=$;&$&O&$&O&O$-&O.$  %XX#O& $& &O&$..& &.-&-&O %",
"Xo&$$.$.-$&O %**o;$&$$.&O$O&$O.-$O&O %%XoO&-&$ &OO&&O&$&&-& &$ %",
"X.$.& &.O.O  %XXoo$.O&O&O&O.$O-&O.$O %%*..& $&-$O$-&$& &-$&$.O %",
"X.&O$ -$ O$O %%*..OO $OO$  O$O$O $ O %%XoOO OO $ O $ O $  O$O$ %",
"X$           %%X$                    %%X$          O       O   %",
"XX%%%%%%%%%%%%%*X%%%%%%%%%%%%%%%%%%%%%**%%%%%%%%%%%%%%%%%%%%%%%%",
"*%%%%*XXX%%%%%*%X*XXXXX%%%*XXX%%XXX*XX*%X****@@@@**XX%%%*%*XXX*%",
"ooo;;;o;o;o;o;o&X*X###oooo=o=oo;oo;oo;o;o;;+;+;+;+;++X%*##oo=o=o",
"+$$+.$+-.$+ +$. %X*# +o-o $;$$o..$-$.$&$&-o o$.oo.o& %*%=o-+$+$+",
"$&$&-$$ &$ $.&- %XXo+O&-&&$& &O .&-&$. &&$ &$&O$.O&O %X*=+-&$-&.",
"O&&$. &-$$. +$O %%*oO&$.$$ $$O&$ &$- $$$& $-&O.O+.-O %XXo$.&&-&-",
"&$$&$--$-&. & O %%XoO&&-& $& O& $&-$-& &$ & &O$O&O&O %%Xo+$&-&.$",
"O& &O$-. & $&&O %X*o+ &-&$ $ $O &$- $. $ $& $&O$&O&O %%*+-.& &-$",
"O+ O -O.-.O .OO %**+&O$ O.O$ O$ O.O. .O$$ .OO$ O.O$O %X*+&$O O.O",
" O              %X*+                                 %X%&       ",
"%%%%%%%%%%%%%%%%%X%X%%%%%%%%%%%%%%%%%%%%%%%%%%%%%%%%%%**X%%%%%%%",
"**X%%X*%*%XX%%%%XX*XXX*%X%X%*XXX*%*XX%%%XXX**%%%XXXX*X*%*%%%*XXX",
"*#=#ooo;oo;oo;o++;+;++++;+++X**##==o=ooo=oo;o;o;o+;+;++++++++;&X",
"*o$+;-;-;-+$+$+o$+$+$;+ +oO %**#;O=&+$&+$+$+- &$ $&-$&.$&$$& & %",
"%o+$&.&$ $&.$.$.$ &O&$ $&O+ %X@=;.& & $O.$ & $& + +-&$& &.-&-O %",
"Xo &&O$ & &O&$.& $&O$&$ $.O %*@#;$.$& &O.&-&$.$ &O &.O.$&&-& O %",
"Xo+$& & O$&$O-&$$ -& &$ &O  %*@# &O.$ $.O& $ $&$$O$$&$& &-$&$  %",
"*oO & $-& & & &$ $&$ & $$-+ %**+oO&O&$&$O& & OO . & & &&$  O$O %",
"Xo& OOO O OO$ $OO$OO O.O.OO %%*o&O.O$ OOOO $O$ & -& O$ & & &OO %",
"X&.                         %%*&                               %",
"XX%%%%%%%%%%%%%%%%%%%%%%%%%%%*XX%%%%%%%%%%%%%%%%%%%%%%%%%%%%%%%%",
"******X%X%%%X*@@***XXXX%%%X%%%*XXX*%*X*XX%X%XX**XXX%XXXX*%*XXX*%",
"o;o++++;+;&X%*#o=o=o;oo;o;o;o;o+;+;+;+;&X**##o==oo;oo;ooo;oooo;o",
"&+.;.o++o& %*%#. &O.& &$.&O&$ && &&O&-& %**#.$.O.& .$$-.O&$.-.O&",
"&-$&.&$.$O %X*o +-$&$..O&$$ $$&$ &O$& & %**o& &O&$ &$.$$$.O.$.$O",
"$-&.$.$.&O %X%o &&-.&O&O&$& & $$&$O.&-& %*@o&-&O&$&$&&-&O.$&.$.O",
"&$$..&.-$O %**o. &$.$ .$$$O$& &$ $.O$&$ %*@=-&&O& &&-$.$....$-O$",
"&$-&$&-.&O %XX= &- .&O$$&$&O$  . &.O&-& %**o&$.&O&$$-&-&O.$&$$&O",
"OO$.OO.OOO %XX. +. +-O&O& & $ +$ .O.& - %X*=& &O&&$&$&-&O.O.-.&O",
"           %X*+                         %XX&                    ",
"%%%%%%%%%%%%X*X%%%%%%%%%%%%%%%%%%%%%%%%%%X*X%%%%%%X%%%%%%%%%%%%%",
"*X*%X%%XX%%%%XX%%%XXXXX**XX%%%*XXX*%X%X%*X*X*%*X*@@**XX%*X*X*%*%",
"%#=oooooo;o;oo;o;++;++;++;++++++%*%##ooooooo;oo;oooo+;+;+;+;;++X",
"*=&$$& &&-.&-.O$& &-&$& & &&$ & %**=&& & & .O. &$ $$ &$-&-.O$& %",
"Xo& &$ &$.-& $ &. & $.$ &$.$.-. %XXo$& $ - . .$. & &O$O&$$.& $ %",
"Xo$ & $O & &$$$& .$$ $& . $ $$O %%Xo$&  .&$ &$ .+ &OO&O&-&O$ & %",
"%o&$&$ &$$.&-& $& & $& .&$.+.-- %%*o& &$ & &O.-$ $ &-$.$.-O&$& %",
"*o& $& & & & &O&  + $-&$$ . $O& %%*o&  & $ . & . & $O&O$.$.$ O %",
"%o& & $O$.$..$$&. $-  & .-.$&O& %%*oO& $ & $&- .O$ &O&O&-.O& & %",
"*&                              %**&                           %",
"%X%%%%%%%%%%%%%%%%%%%%%%%%%%%%%%%X%X%%%%%%%%%%%%%%%%%%%%%%%%%%%%",
"*%*%***XXXX*@@*X*%*X*XX%%%XX*XX%XX*%*XXXXXXXX*****XXXX%%%%%%XX**",
"o;o;o;+;+;+;+;+;+&X**##=#oo=o=o;o;o;;+;;+;+;+;&X%*###=oooo;o;o;o",
"-& &. . &$o-& &-& %*X#.&&& & &-& & &.& & & &O  %**o. $& & &O. &O",
"&--&$& .$ . $ $ $ %XXo$.O& O -.-&$ $. $$O$ & & %X*# & &O&O$&O&$ ",
"&- $. . -&$ &$ .$ %XX+-$O& $-& & && & & $ $$ - %X*# &OO&&$O$O O$",
"-. .  + &-& -O &  %X%+& O& & &$. & $$ & &$ O.  %**#.  &$OO&O& O&",
" +-& + $& &- $&-$ %**o && &-O$ - & & -- $O $O  %XX# +$&O&$OO &O&",
" &-$ .. . $ & & . %XX= &O& $-$ . . &$ &$ & & . %%X= & O &O&O  & ",
"-. &  $ $-& & O$$ %X*o& O& . $ + &O & -& $O$ . %%X=   & &O&O& &O",
"                  %XX+                         %**&             ",
"%%%%%%%%%%%%%%%%%%%**X%%%%%%%%%%%%%%%%%%%%%%%%%%%XX%%%%%%%%%%%%%",
"%*%*%%%XXXXX**%XX*X*****XXX**XX*XX%XXXX%%X%%XX%%%*XX%*XXXX%%%XXX",
"@@@@@@@@@@@@@@@@@@@@@@@@@@@@@@@@@@@@@@@@@@@@@@@@@@@@@@@@@@@@@@@@"
};
