/* XPM */
static char *d0a5fad5d9464c1dbf86e09f97f7ae5ffWnL8Cvejtp9ZDOe[] = {
/* columns rows colors chars-per-pixel */
"64 63 64 1 ",
"  c #440204",
". c #8C8A8C",
"X c #9C0204",
"o c #444244",
"O c #B44604",
"+ c #5C0204",
"@ c #D40204",
"# c #FCFE04",
"$ c #646264",
"% c #242224",
"& c #C49A2C",
"* c #EC6E0C",
"= c #9C029C",
"- c #6C026C",
"; c #BC0204",
": c #844204",
"> c #A46A3C",
", c #7C0204",
"< c #FC1E1C",
"1 c #543E1C",
"2 c #A4A6A4",
"3 c #EC0204",
"4 c #2C2E2C",
"5 c #B40204",
"6 c #545654",
"7 c #CC5604",
"8 c #740204",
"9 c #7C7E7C",
"0 c #BCBEBC",
"q c #4C0204",
"w c #949694",
"e c #A40204",
"r c #444644",
"t c #9C5A14",
"y c #640204",
"u c #E40204",
"i c #D4D2D4",
"p c #6C6E6C",
"a c #242624",
"s c #DC9264",
"d c #FC7E1C",
"f c #CC0204",
"g c #744E2C",
"h c #AC7A1C",
"j c #8C0204",
"k c #B4B2B4",
"l c #FC0204",
"z c #343634",
"x c black",
"c c black",
"v c black",
"b c black",
"n c black",
"m c black",
"M c black",
"N c black",
"B c black",
"V c black",
"C c black",
"Z c black",
"A c black",
"S c black",
"D c black",
"F c black",
/* pixels */
"6z6rrrrr6rrrrrr6rzrrrrrrr666666rrrrrrrrr6666666rrrrzzzrr66rrrrrz",
"z3l@u@u@u@u@5r66l3u@u@u@u@u@u@u@u@u@5ro6l3l333u33u@u@u@@@f@;f;5r",
"r#f55@j5@jf5y4o63;j;j;j;,;X;X;,;,;f584oz@5f5f55f8f,f5fj5e,fXf5#4",
"#&tkkkkkkkkkkkkkkkkkkkkkkkkkkkkkkkkkkkkkkkkkkkkkkkkkkkkkkkkkk&&:",
">h1pp99999999999999999999999999999999999999999999999999999ppp:s1",
"r159999wwwwwwwwwwwwwwwwwwwwwwwwwwwwwwwwwwwwwwwwwwwwwwwwww9p99y>4",
"r;,w9<5  6,8,8,,,,,,,,,,,,,,,,,,,,,8,8,,8,8,8,8,8,55l39qqq90p+ z",
"r;52950wpq920i00kkkkkkkkkkkkkkkkkkkkkkkkkkkkkkkk000009q9pw<.p+ 4",
"r,8kw w0w9.w22.92i0kkkkkkkkkkkkkkkkkkkkkkkkkkkk.-$0k222p2i5p9  4",
"rr4i2 w20w99ww6-p2ii00kkkkkkkkkkkkkkkkkkkkkk00.$--w2kwwki9 9w%%4",
"6zzik6pw0029..----92i00000kk-p6----O7*kkkk00.$----wwww2i0$6.2a44",
"3@@ki 9w2k0wp$r-----9kkk0kkk-----9-OO7dkkk.p-----rww220029qw2y+@",
"5Xjki8w.w2k$-p$r-------9.kkkp------O.0k.$-------rpp-$202w9 2k++5",
"jejki52www$--rp$r--------p.kk------.k.$--------rp$---$2w9.,2k++X",
"8eekkXkw..-----6$oo--------kk------kk--------zr$r-----2.9.82k++,",
"ejjkkj02w.-------r6z4%----6kk------kk6------zrr-------.9..,2k++,",
"85ykk8ik22o--------4%4%--.kkp------p0k.---4%4--------$.9.w,kk++j",
"85ykk8i0kw$r--------%4%-.-pk--------kp-.-4%---------g99..28kk++8",
" qqkk8ii$-p6$o-------%4----k0------kk-------------g.$rr$w2,kk + ",
"444kk8ki---r66$o-----------9$------$9-----------g.9$raa-w2,kk%%4",
"66rkk8ki-----%zrr$$--------------------------g$.9$--a4a-22,kka44",
"63300,0k-----4%4---=------------------------=------aaaa-22,kk++4",
"63XiiXi0------4%4---------------------------=------aa4--22,kk+ 4",
"z3500j0wp-----%4-4----------g6$pp$g6--------------4%4%-pw2jkk+ 4",
"r;8kk,kwwpr-----------------$-=--=-$--------------%4%rpwwkjkk+ 4",
"r;5kk8k--6$pp$$$o1z---------9=----=9---------g6rozor6$r--0e00+ 4",
"6;82282---------------------$------$--------------4------ieii+ 4",
"r@52282---------------------9=----=9---------------------0e00+ 4",
"reXwwqw---------------------g-=1-=-g---------------------0X00+ 4",
"rrz22y2------------g----g---9$-6--69---g----g------------k,kk%%4",
"6662282$--------1p-----6----6996699$----6-----pr--------$k,kka4z",
";;fkk8kw$----1pp------p-------699$-------p------ppr----$wk,kk++;",
"55ekk8kkkwww2p-------p--------------------p-------pwwwwkk2822++e",
"e,jkk8kkww9---------p----------------------p---------pwwww+ww++8",
"j,5kk8kk-----------p----p-p----------p-p----p-----------..+..++8",
"5,,kk8kk----------p----$wp------------pw$----p----------ww+ww++j",
"ej,kk,kkp--------p-----w----------------w-----p--------pww8ww++8",
"88jkk,kkw-------p-----w------------------w-----p-------wk2822++8",
"  qkkjkkkp-----p--------------------------------p-----pkkk8kk++ ",
"44400j0000p---p------w--------------------w------p---pkkkk8kk%%4",
"6r6ii5iiikkwwww-----wk=------p----p------=kw-----wwwwkkkkk8kka44",
"z3u00X000kkkkkww---wkkkp----------------pkkkw---wwkk0kkk00X00++4",
"6@5kkXkkkkkk09OO.kkkk.O------------------O.kkkk.OO.kk00000j00+ 4",
"r@5kkjkkkkkkkOOOOOOOOOOgg--pk------kp--:gOOOOOOOOOO0000iiieii+ 4",
"r@jkk,kkkkkkkk.$gOOOOgg.kkkk--------kk0k.ggOO7Og$9kkk00000e00+ 4",
"z@5kk,kkkkkkk.OOOOO7OOOOkkk----------kkkOOOOOOOOOO.kk0k000X00+ 4",
"6@e228222kkkkOgg.7Ogk.gOk9------------9kOg.0gOO.ggO0kkkkkk8kk+ 4",
"z@e228222222kg..kOgkkkk96--------------690kkkgOk..:kkkkkkk8kk+ 4",
"65ykk8kkkkkkkkkkkOgkk96------------------69kkgOkkkkkkkkkkk8kk  4",
"zr4kk8wkkkkkkkkkk.Ok---------.----9---------kO.0kkkkkkkkkw8kk%%4",
"6z6kk89kkkkk0kkkkkkk96-----$k------k$-----g90kkkkkkkkkkkk98kka4z",
"@@@kk9,9w0kkkkkkkkkkk09$--$k9------9k$--g90kkkkkkkkkkkkw9,9kk++;",
",5+9kk98889wkkkkkkkkkkkkkkkk--------kkk0kkkkkkkkkkkkw.8889wk9++8",
"5,,+9kkkw988889wkkkkkkkkkkkk$------$k0kkkkkkkkkkw98888.wkk09+++q",
"e,+++69kkkkkw98889wkkkkkkkkk0$----$kkkkkkkkkkw98,89wkkkk096+++8j",
",X+++++69kkkkkkw98889w0kkkkkkk$--$kkkkkkkkw98889wkkkkk96+++++y8e",
"8e,5y+8++++690kk0kw98889wkkkkkk$$k0kkkkw98889wkkkk096++++++8+e8e",
"ye,,yXXy++++++69kkkkkw988889wkkk0kkw9,8,89wkkkkk96+++++++8e8+y5q",
",X+5yyjy,,e++++++ 690kkkkw9,,89ww9,,89wkkkkk96 z4z++++e+e8e8eye8",
"+qqqqq+q+q+qqqqq  a%469kkkkkw9,,,89wkkkk96+q+  %44+  qqqqq+qq+qq",
"4444444444444444444%a%aaz69kkkkkkkkkk96aa%a%4%%a444444444%%%%%44",
"z6z6zzzrrrrr6zzzz4z44444%%aaa69kk96z%a%%%4444444zzzrr6rrrrozorrr",
"666$66$666666$66$66rzzzz4%%%aaaa%a%%%%a%a%zzzzrr666$66$666666666"
};
