/* XPM */
static char *_2244bccea9744999f8da786a50f0efbAl4kZudkI2Xtvdy6[] = {
/* columns rows colors chars-per-pixel */
"64 63 32 1 ",
"  c #440204",
". c #444244",
"X c #740204",
"o c #845634",
"O c #2C220C",
"+ c #5C5A5C",
"@ c #6C4624",
"# c #3C2E14",
"$ c #545654",
"% c #9C0204",
"& c #2C2E2C",
"* c #5C0204",
"= c #543E1C",
"- c #8C0204",
"; c #B47244",
": c #342A14",
"> c #6C6E6C",
", c #744E2C",
"< c #4C0204",
"1 c #444644",
"2 c #7C0204",
"3 c #9C623C",
"4 c #242224",
"5 c #646264",
"6 c #4C361C",
"7 c #A40204",
"8 c #343634",
"9 c #640204",
"0 c #5C4224",
"q c #7C522C",
"w c black",
"e c black",
/* pixels */
"1&188888188888818888888881.1.1.8888888881.1.1.188888&&881.888888",
"&7777%7%7%7%2881>>>>>>>>>>>>>>>>>>>>588.77777%%7%7%%7%7-%-----X8",
"87%22%9X%9-X*&8.>5$51>1>15+5+5$51>5+.&887X%2-2--*-*-2-92X*-X-X*&",
"87X*X9XX*X9*<&81>5.1+1.++.+++.$+.++.888.%XX*<X9*9X*9XXXX*9X X*<&",
"8%*XX*XXX*X O88.>$5+1+.+1+.+111+.+..8&887*X<9X<X*X*X9X<XX*X*X* &",
"8-X*9X*X*9X*O&8155.+11++.11+1.+11.+1&8&8-*X*X9*X**XX*X9XX*X X* &",
"8-*XX*XX*X* O&88551+.+.+1+.+1.1+.+1.8&882XX<9X*9*9*X9X<X*9X*X*O&",
"82X*9 ** *9*O&8.++..81..1.&.1111&1..&8&8-** ** 9 * 9 * 9< ***9O&",
"8*<<<OOOOOOO4&&818888888.8888&&&8&&8&&&8X <<<<<<<<<         OOO&",
"88&&&&&&&&4448&.8&&&8&44444&&4444&&&8&8.&&&&&&&&&&&&44444&&&&&&8",
"1&8&&88888&&&&8&8.888888&&.8.8&&888888.88....1111..88&&&.&.8881&",
"7%%%-2-2-22-2-228.8;;333333oooo3ooooooooooooooooooooq8&.77%%%%%%",
"-9X2X*2*X92<29XO&8.;0oo0o00o@0o@q0@@q@q@,@o0o@@3o@3,#&8&7%*2X2X2",
"9X9X*99<X9<XXX*O&883o=q0qq0q=q==0q0,0,=,,00q0q=0q=,=:&8.-2*X9*XX",
"*XX9X<X*9XX X9*O8&83=,0@00=00=q0=q000000q600q=,=,,==:&&8%*XXX*X*",
"X99X9**9*XX<X<*O&&830,q0q=0q==,=0q000q=q06q=,=0=q=q=:&88-2*X*XX*",
"*X<X*9*X<X<9XX*O&813o6,0q0=060==q0060q=060,=0q=0,=,=:4&8-*XX X*9",
"*2** **X*X* X**O88.o,=06=@=0==06=@=@=0=006@==0#=@=0=:4&.2X** *X*",
"O            OO4&8.q======0=0=0==666666666666666666::488X<O<OO O",
"&&&4&&&444&&&44&&8&8&8&&8&&&&&&&&&8&444448&&4444&8&&&88.8&&&&&&&",
".18&&8.&.&888&&8881888&&&&&8&8881&.88&8&&&881&8&&88818.&.&&&.888",
".>>>>>>>>>555555555555555>5+8.1-2XXXXXXXXXXX9X99X9X9X9X9X9X9X9*8",
"1>1551515151+1+>151+1>+8+>.&&8.29*X*9**9*X*9< **<**<*****<** *O&",
"&>5.+++111++1+1+18+1+.81+.+&&..X9** * *<** * ** *<*<*** **<*<<O&",
"858++11858+1+1++815.1+1815.&&.1XX<*<* *<**<*<** *<<**<****<* <O&",
"85+1+8+8.1+111+1181+85185.8&&.1X<*<** **<* * **<*<*<*** *<**<<O&",
"1518+&1158+8+8+181518+8111+&88.XX<*<****<* * << * * * ***  <*<O&",
"8>+81.18.&.1181111..8.+.+..&&&.X*<*<* <<<< *<* * <* <* * * *<*O&",
"85+888888888.88.8&&8&&&&&&8&8&.*                          O < O&",
"88&&8&8&8&8&&&&&&8&&8&8&8&&&&888&&&&&&&&44444&&&&&444&&&&&&&&&&8",
".....8888&&88.11...888&&&8&8&8.888.&.8.8&&&&&8..88&&&888.&.888.&",
"-2-2-2--2-X8&.33333333oooooooooo3oo3oooq81.-7%%%%%%%%%-22-22-2-2",
"X2X2X-22-XO&883q0q=qq0q@,q0q@=q,=q,=,0q:&8.%X*X*XX<X*9*X*X9X*X*X",
"X*9XXX*X9*O&8.3=,00q0,@=,00=00,@=,=0q=q:&1.%X X*X9*X9X*99X*X*X9*",
"9*XX*X*XX*O&883=qq0@,=,=q0,6,600,00@,0q:&.1%X*X*X9X9XX*X*X9XX*X*",
"X9*XXXX*9*O88.3@=,0q06@00000,6,000@=0q0:&.17*XX*X<XX**X*X9XX9**9",
"X9*X*X*XX*O&883=q06@q=00q0,=06=@=q@=,0q:&81-X*XX*X99*X*X*X9X*9X*",
"**9X**X***O&88@=,q6,0=q=q=q60=,0=@=@q=0:&8.-X X*XX9X9X*X*X*X*XX*",
"OO       O4&88q=========66666666666666::888X<<<<<<<<<<<<<<<    O",
"&&&&&&&&&&&88.8&4444&&&&&&44444&&8&&&&&&&888&&&&&&8&&&444&&&&&&&",
"181&8&&888&&&8.&&8888.8..88&&&.888.&888&8..8.&.8.11.888&.8.8.&1&",
"&-**XXXXX9X9X9X9X99X999X9X9X9X99&.877%%7%%%7%--2--2---2-2-2-2-X8",
".X<<** **<**<*<** *<*** * **<<*O&8.72X<X<X X*X X* X9*X9*X*X*9XO&",
"8X< ** ***<* * ** * *** *<*<*<*O&8879X*9<* 9 X*X X<X*9*X9*XX<9O&",
"8X* * *< * **<** *** <* * * **<O8&8%XX *9X* X* XX X**X*X*X*9<XO&",
"&X<<** **<**<* ** * ** **<***<*O&&8%X<X9<X X*X** 9<X*9X9X**X9XO&",
".X< ** * * * *<*  * * *<* * *<*O48.%X<<X<* X X X X<9*X**X*X9<*O&",
"&X< * *<**<****** *   * *<*<*<*O4&.-*X<X<X *X* X***X*X*X*X*X<XO&",
".*                             O&8.X<<<<<<<<<                OO&",
"&8&&&&&&&&&&&&&&4444&&&4444&&44&&888&&&&&&444&&&&&4&&&&444&&&&&8",
"1&1&.8.8888.11.8.&.8.8&&&&&8.88&88.&.888888888...88888&&44&&8818",
"%%%%%-2-2-2-2-222X818;;33333333oooooo3ooooooooq8&.7%%%%%2222-2-2",
"*X XX<X<X*-*X<X*XO&883,,,,=,#,@,0q=q#,=q0q6o0=:&81%X<9X X*X*X<X*",
"X**X*X<X*<X *<9<9O&883@,=q==#0@0,@=##=00=06q=,:88.%<X X*X*9X*X9 ",
"X* *X<X<*X* X9<X*O888300=,=0@,=,#,#6,=q=0600==:&8.%*X**XX9*9*<*9",
"*X X<<X<X*X **<X*O&8&3,6=,=,#,0@=,##0=,=q06=@=:&81%X< X9**X*X<*X",
"<X*X<X<XX<X* 9X*9O&8&3#,,=q000606#6#00@=0=6@==:888%<X9X*X9** X*X",
"<X**<XX<X<* X<X<XO&8836,=,=0006@###,0=,0=q6,60:&&8%*X * X*X* <X ",
"*X X<<9<**X X<*9*O&81o,#=,0,#0=,=#0=,=0,=0=0=0:&88-<< X X*X*X<X*",
"                OO888q:::::#6########6#6#####::48.XOO           ",
"&&&&&&&&&&&&&&&&&&&8.88&8&&&&&8&8&8&&&&444448444888&&&&&&44444&&",
"&.&.&&&88888..&88881....8881888188&8888&&&8&&8&&8.88&.8888&&&888",
"1.1.1.1.1.1.1.1.11..1.1..11111..1.1.1...1..1111....1.1.1.1.1.1.1"
};
