/* XPM */
static char *_600897338814[] = {
/* columns rows colors chars-per-pixel */
"64 64 64 1 ",
"  c #040204",
". c #449234",
"X c #8C0204",
"o c #1C4214",
"O c #844204",
"+ c #440204",
"@ c #C49A2C",
"# c #CC0204",
"$ c #5C4224",
"% c #CC5604",
"& c #4C361C",
"* c #2C220C",
"= c #646264",
"- c #A43E04",
"; c #9C623C",
": c #640204",
"> c #FCFE04",
", c #2C2E2C",
"< c #5CCE54",
"1 c #B40204",
"2 c #FC3E3C",
"3 c #8C8A8C",
"4 c #2C6224",
"5 c #B44604",
"6 c #E40204",
"7 c #6C4624",
"8 c #9C0204",
"9 c #845634",
"0 c #5C0204",
"q c #A4A6A4",
"w c #342A14",
"e c #7C7E7C",
"r c #740204",
"t c #FCFE8C",
"y c #3C2E14",
"u c #4C9E3C",
"i c #444644",
"p c #4C0204",
"a c #D40204",
"s c #545654",
"d c #FC5E5C",
"f c #543E1C",
"g c #242224",
"h c #6C6E6C",
"j c #AC7A1C",
"k c #FCFE24",
"l c #343634",
"z c #BC0204",
"x c #949694",
"c c #34722C",
"v c #EC0204",
"b c #744E2C",
"n c #A40204",
"m c #9C5A14",
"M c #B4B2B4",
"N c #7C0204",
"B c black",
"V c black",
"C c black",
"Z c black",
"A c black",
"S c black",
"D c black",
"F c black",
/* pixels */
"****************************************************************",
"y&yyy&yyy&yyy&yyy&yyy&yyy&yyy&yyy&yyy&yyy&yyy&yyy&yyy&yyy&yyy&yy",
"$$$7$$$7$$$7$$$7$$$7$$$7$$$7$$$7$$$7$$$7$$$7$$$7$$$7$$$7$$$7$$$$",
"***g***g***g***g***g***g***g***g***g***g***g***g***g***g***g****",
"**y&&&&*$**$w****&&*y*y***$**$&*&*$**$w***w*$**$*&**&g&*&&*$**$y",
"**y&&&w*$**$y**g*&&*y*y***$**$&*&*$**$&w*,&*$**$*&g*&*&*&&*$**$&",
"**w&&>@@@@@@@@@@@@@@@@@@@@@@@@@@@@@@@@@@@@@@@@@@@@@@@@@@@@%w**$y",
"**wy&@@%%%%%%%%%%%%%%%%%%%%%%%%%%%%%%%%%%%%%%%%%%%%%%%%%%%%,*w$y",
"y*gw&@%&&&&&&&&&&&&&&&&&&&&&&&&&&&&&&&&&&&&&&&&&&&&&&&&&&%7y*g$*",
"y**ww@%&                                                 57,**$*",
"&**g*@%& oooo4ccccccccc444oooooooooooooooooooooooooooo,,l57w**$*",
"&****@%& oocccccu.u<d222vvvvvv66666vvvvvvvv222du.ccooocoo5bw**$w",
"y&w*g@%& o4ccc.u<d2vvvvvv66v6#6z6z6#666v66vvvvv2d.44o4o4457w**$*",
"y&g*w@%& 4ccc.u<v222v2vvv66666z6z6z666666vvv2v222vc44c44457w**$*",
"w&&**@%& 4ccccuv22222v2vvv66666z6#6z666vv6v2v22222vc44c4c%7w*g$w",
"*&&&*@%& cccucv6v222v2vvvv6666z6z6z666666vvv2v222v6vccccu57w*w$*",
"*yf&w@%& ccc.cpn#v2v#XXNrrrr:rrrr:rrr:rrrrNXX#v2v#npccu..57w**$*",
"*y&&&@%& cccccp+nz#rXoooooll,,gggg,lo4444ogggXr#zn++c..uu57w**$*",
"*wy&&@%f 44ccop+0r+:gooool,,gggggg,,lo44oo,ogg:+r0++.uuuu5bw*g$y",
"**y&&@%l 4cccvNr++++ohMMelgggiexMMgglloo&xMigg++++rrv.uu.57w*w$y",
"**y&&@%f oc4vvv1:++gxMhlgglggexMxlg ,loo,,eMeg+++rnvvv..c57w**$y",
"*g*&&@%& o4v22vv10gxMhlggg,l,3MMM=MMh,llg*,eMig+0nvv22vcc5bw**$y",
"***,*@%& oXvv22vvg4Mhlggggl,,eeq=illllllg*glxxiggvv22vvac57w*g7y",
"**w**@%& oX#vv22o4xMgg,gggg,,lx3=lg,,,ygg*ggeM3gg,22vv#X45bw**$y",
"*g***@%i oXn#vvoi4Mxlgggglgllgxx3=lg,,,li*ggsxMg44zvv#nr457w**$y",
"y***g@%& o+:1z6gllMh,gg*gg=lllxqq3eil,,il*ggixMgo4g6znr+c5bw**$*",
"y*w**@%& oo0rn++glMiggggg,=eMMMMMMMxglihg,gglqMgog+:1:0oc57w*g$w",
"&****@%& o4o0r+++gMiggggggg=xMMMMMMxgioggggglxMgg+++r0oc.5bw*w$*",
"w*g**@%& 4c4o0++++Mlgggggggg=MqqqMq3gggggggglxMg++++0oc.u57w**$*",
"*y**g@%& c.cop++++Mlg,gggggggxe3eee=lggggggglxMg+++::c.uu5bw**$*",
"*y***@%f cu.c1nr:+Migggggggggee====lggggggggixMg+rrn1....57w**$w",
"*wgwy@%l 4u.46n1r+Migggggggggxhlllllggggggg,ixMg+rnn6c...57w*g$*",
"**y*y@%f oc4v6nnn+Mhgggggggggelgggggggggg,glexMg+n1n6vc.c5bww*$*",
"**ywy@%& o4v2v6n+gxM,ggg,gg,gelggggglgggggliex3gg+n6v2vcc57w**$w",
"**wyw@%& oo1v2v+g,iMlggggg,,g=l,gg,,igggggi=xMhglg+v2v1cc5bw**$*",
"***,*@%& 44r#v+,gglMhgggg,,,,hlggggihlgggghexM=g,,g:v#:cc57w**$*",
"****w@%& cc+0z+++g,xMgggg,,ll3iggggs3lggggexxegol++:#0+4c%7w**$y",
"**g**@%& cco+0++++giM=ggg,lgi3s,ggg=3iggggxxMigl++++0+o4457w*g$y",
"**w*g@%& 4cco++++++ghMg,,,,g=3=gggge3=ggggxMhgg++++++o44457w*w$y",
"*g***@%& o.c4oo,+p++giegg,lgxxxggggxxxlglgMhlg++p+ooo4cc45bw**$y",
"*****@%& oc.z1++g+rp+gglglgxixiMixiixix,,lhl,+pr+o+r6vcco5bw**$w",
"y*w*g@%f ocv2v1r++rr+gggg77ff$fffff&y&w*,,,,,+r:++rrv2vco57w**$*",
"&****@%l ov6v2vX+++rp+gg7j@kkkk>>@@jmOyy*,l,+pr++++v2vvvo5bw**$*",
"ywg**@%f o8166++++++++g7j@k>@@6NNN6fyyyw,*,l+++++++:6618o57w*w$*",
"yy***@%& ,+rnn+,o,++++g,7fymyNN NXrNwy,w*,ll++++,,,:1nr+o5bw**$*",
"wyw*,@%& ,o++rr+,o,++g,g7jyk6N +N+ N+ywy*lool++,,,pr:++,o57w*g$*",
"*&ywy@%& oooo+++++++,gg,7jykXN+ + + pywywoooll+++++++,oo45bw**7*",
"*yywy@%& o44oooo+++++,,gbj&kNNN+ +NNXywy*lollp++++,ooo44c57w**$*",
"*y&f&@%f oc2vX+ooo+p++,,7jykN + + +Npywy*lll++p+,,,pXv.c45bw**$*",
"*w&&&@%& o22v1nX+++0p++l7jyk6N +N+ N+ywy*lop+p0+++X8nvv.45bw**$w",
"**y&&@%& ovv2vn+++rr00+,7j&kyXNNN N+wyw&*oo+p0rr+++nv2vv&57w**$*",
"**y&&@%& oXn62+,,++rr++,7jyky>6NNN+ywywy*ol++rr++gg:261Xo57w**$*",
"**y&l@%& ,oX:1+0,,,+++,b;>kt>t>jjOfy&ywwy*l,+++,,g0:1:Xoo57wwg7*",
"*g*yy@%& oooX+++++,oooofy&9$7;7$$$&*wyy*w*,l,,,,+++r+Nooo5bw**$w",
"**wyy@%& ooooo+:r0+ooo9;j>tktt>>jjOfyy&wwy*llllp0rr+ooooo57w**$w",
"*g*ww@%& ool+++++r+oo$fyy97$;b7$7yww*wyyg**llol+r+++++ooo5bw**$y",
"*****@%& l,l,,,g++,oob;j>tkktt>>jjOf&yyywwy*l,l,++,looooo5bw*g$&",
"**gw*@%i ,,,,,,,,,olob;997$;bb7&yww*g*www***,,,,loooooooo57w**$&",
"*****@%%55555555555555555555555555555555555555555555555%55bw**$&",
"w***g@-7777b77b77b777b7b7b77b7777b77b77b7b77b7b77b7b7b77777w**$f",
"w*gw*-,ywwwwwwwwywwywwwwwwwwwwwwwwwwwwwwwwwwwwwwywwwwwwwwwww*w$&",
"y*****y*$**y**************y**y*w**y**y******y**y***********y*g$&",
"yw****y*$**$****w****y&&w*$**$yw*g7*g7**gw*g7**$w*&w******w$**$&",
"wwyw,yw*$w*$yg******wwwww*$w*$y***$**$,***w*$*g7wgww****wg*$*w$w"
};
